# xmcd
#
# Track frame offsets:
#	150
#	10927
#	31892
#	47905
#	67177
#	78169
#	91960
#	107968
#	125918
#	141374
#	165141
#	181106
#	199215
#	216623
#	230800
#	246522
#	261936
#	280225
#
# Disc length: 3955
#
# Revision: 2
# Processed by: cddbd v1.5.1PL0 Copyright (c) Steve Scherf et al.
# Submitted via: CDex 1.30Release
# Normalized: r1:TDELIM( - )
#
DISCID=130f7112
DTITLE=Various Artist - A Crazy Little Thing Called Country
DYEAR=1999
DGENRE=Country
TTITLE0=Dwight Yokam - Crazy Little Thing Called Love
TTITLE1=Paul Brandt - That's the truth
TTITLE2=Harris, Ronstadt, Pardon - After the gold rush
TTITLE3=Faith Hill - The secret of Love
TTITLE4=John Michael Montgomery - Hello L.O.V.E.
TTITLE5=The Wilkinsons - Boy Oh Boy
TTITLE6=Lila McCann - With You
TTITLE7=Chad Brock - Ordinary Lofe
TTITLE8=George Jones - Choices
TTITLE9=Claudia Church - Home in my Heart
TTITLE10=Mandy Barnet - The whispering wind
TTITLE11=Michael Peterson - Somthin' about a Sunday
TTITLE12=Chalee Tennison - Someone Else's Turn to Cry
TTITLE13=Neal McCoy - The Girls of Summer
TTITLE14=Shirley Myers (w Duane Steele) - Forever in love
TTITLE15=Clay Walker - She's always right
TTITLE16=Ian Tyson - Somewhere over the rainbow
TTITLE17=David Ball - Watching my baby not coming back
EXTD=YEAR: 1999 ID3G:   2
EXTT0=
EXTT1=
EXTT2=
EXTT3=
EXTT4=
EXTT5=
EXTT6=
EXTT7=
EXTT8=
EXTT9=
EXTT10=
EXTT11=
EXTT12=
EXTT13=
EXTT14=
EXTT15=
EXTT16=
EXTT17=
PLAYORDER=
